<?xml version="1.0" standalone="no"?>
<!DOCTYPE svg PUBLIC "-//W3C//DTD SVG 20010904//EN"
 "http://www.w3.org/TR/2001/REC-SVG-20010904/DTD/svg10.dtd">
<svg version="1.0" xmlns="http://www.w3.org/2000/svg"
 width="512.000000pt" height="512.000000pt" viewBox="0 0 512.000000 512.000000"
 preserveAspectRatio="xMidYMid meet">
<metadata>
Created by potrace 1.14, written by Peter Selinger 2001-2017
</metadata>
<g transform="translate(0.000000,512.000000) scale(0.100000,-0.100000)"
fill="#000000" stroke="none">
<path d="M2400 4599 c-30 -4 -91 -13 -135 -18 -81 -10 -146 -24 -200 -43 -16
-6 -48 -13 -70 -15 -22 -3 -44 -9 -49 -14 -6 -5 -20 -9 -32 -9 -12 0 -36 -7
-53 -15 -17 -8 -45 -22 -62 -30 -17 -8 -36 -15 -43 -15 -15 0 -109 -45 -194
-94 -35 -20 -70 -36 -77 -36 -8 0 -18 -6 -22 -14 -4 -8 -26 -24 -48 -37 -172
-100 -454 -382 -554 -554 -13 -22 -29 -44 -37 -48 -8 -4 -14 -14 -14 -22 0 -7
-16 -42 -36 -77 -49 -85 -94 -179 -94 -194 0 -7 -7 -27 -16 -46 -39 -78 -44
-91 -44 -112 0 -12 -4 -26 -9 -31 -5 -6 -11 -28 -14 -50 -2 -22 -9 -53 -15
-70 -19 -54 -35 -129 -43 -200 -4 -38 -12 -101 -18 -140 -13 -91 -13 -253 0
-335 6 -36 14 -96 18 -135 11 -92 30 -182 47 -223 8 -18 14 -42 14 -54 0 -23
15 -75 35 -123 7 -16 20 -50 30 -75 33 -86 37 -95 73 -165 104 -201 124 -231
300 -445 51 -61 129 -135 180 -171 23 -17 42 -34 42 -39 0 -15 210 -160 232
-160 7 0 21 -9 32 -19 25 -23 158 -91 178 -91 8 0 19 -5 26 -12 12 -12 53 -28
137 -54 28 -9 66 -22 85 -29 45 -16 113 -34 172 -45 26 -5 55 -13 65 -18 27
-14 217 -27 393 -26 219 0 387 19 495 56 17 6 49 13 73 18 24 4 48 12 54 18 7
7 24 12 39 12 15 0 31 5 34 10 3 6 15 10 26 10 11 0 47 13 82 29 34 16 88 41
119 55 32 14 77 38 100 53 43 28 53 33 118 69 147 80 494 427 574 574 36 65
41 75 69 118 15 23 39 68 53 100 14 31 39 85 55 119 16 35 29 71 29 82 0 11 5
23 10 26 6 3 10 19 10 34 0 15 5 32 12 39 6 6 14 30 18 54 5 24 12 57 18 73
38 110 57 278 56 500 0 229 -18 389 -56 500 -6 17 -13 48 -18 70 -4 22 -12 51
-18 65 -5 14 -17 48 -26 75 -26 84 -42 125 -54 137 -7 7 -12 18 -12 26 0 20
-68 153 -91 178 -10 11 -19 25 -19 32 0 22 -145 232 -160 232 -5 0 -22 19 -39
43 -37 52 -111 130 -171 179 -221 180 -245 196 -445 300 -70 36 -82 41 -165
73 -25 9 -54 22 -65 28 -21 11 -65 23 -130 37 -22 4 -53 12 -70 18 -59 20
-171 42 -215 42 -25 1 -56 7 -70 15 -28 16 -300 19 -400 4z m360 -712 c14 -5
54 -13 90 -18 99 -12 132 -19 168 -35 17 -8 47 -20 65 -28 17 -8 50 -21 72
-28 22 -7 67 -31 100 -53 33 -22 77 -47 97 -57 20 -9 44 -28 53 -42 10 -14 23
-26 29 -26 16 0 152 -133 199 -195 79 -104 105 -143 112 -164 3 -11 10 -21 14
-21 4 0 14 -19 21 -42 8 -24 20 -50 27 -59 7 -8 13 -21 13 -28 0 -7 6 -25 14
-39 19 -38 36 -94 36 -123 1 -13 7 -35 15 -49 8 -14 15 -43 15 -65 0 -22 7
-58 15 -80 20 -57 20 -317 0 -375 -8 -23 -15 -61 -15 -84 -1 -22 -7 -52 -15
-66 -8 -14 -14 -39 -15 -57 0 -17 -4 -35 -10 -38 -5 -3 -10 -16 -10 -28 0 -12
-13 -49 -29 -82 -16 -33 -37 -76 -46 -95 -80 -169 -270 -380 -445 -495 -65
-42 -81 -52 -120 -70 -19 -9 -62 -30 -95 -46 -33 -16 -70 -29 -82 -29 -12 0
-25 -5 -28 -10 -3 -5 -21 -10 -38 -10 -18 -1 -43 -7 -57 -15 -14 -8 -44 -14
-66 -15 -23 0 -61 -7 -84 -15 -58 -20 -318 -20 -375 0 -22 8 -58 15 -80 15
-22 0 -51 7 -65 15 -14 8 -36 14 -49 15 -29 0 -85 17 -123 36 -14 8 -32 14
-39 14 -7 0 -20 6 -28 13 -9 7 -35 19 -58 27 -24 7 -43 17 -43 21 0 4 -10 11
-21 14 -21 7 -60 33 -164 112 -62 47 -195 183 -195 199 0 6 -12 19 -26 29 -14
9 -33 33 -42 53 -10 20 -35 64 -57 97 -22 33 -46 78 -53 100 -7 22 -20 55 -28
73 -8 17 -20 47 -28 65 -16 35 -23 68 -35 167 -5 36 -14 78 -20 93 -15 37 -15
336 0 374 6 15 15 55 20 88 11 83 25 144 41 185 20 50 39 92 49 112 5 10 9 24
9 31 0 8 14 33 30 55 17 23 30 44 30 46 0 8 46 77 82 124 43 56 194 207 250
250 47 36 116 82 124 82 2 0 23 14 46 30 22 17 47 30 55 30 7 0 21 4 31 9 95
49 175 73 297 90 33 5 71 14 85 20 31 13 344 12 380 -2z"/>
</g>
</svg>
